<?xml version="1.0" standalone="no"?>
<!DOCTYPE svg PUBLIC "-//W3C//DTD SVG 20010904//EN"
 "http://www.w3.org/TR/2001/REC-SVG-20010904/DTD/svg10.dtd">
<svg version="1.0" xmlns="http://www.w3.org/2000/svg"
 width="1181.000000pt" height="1181.000000pt" viewBox="0 0 1181.000000 1181.000000"
 preserveAspectRatio="xMidYMid meet">
<metadata>
Created by potrace 1.11, written by Peter Selinger 2001-2013
</metadata>
<g transform="translate(0.000000,1181.000000) scale(0.100000,-0.100000)"
fill="#000000" stroke="none">
<path d="M0 5905 l0 -5905 5905 0 5905 0 0 5905 0 5905 -5905 0 -5905 0 0
-5905z m6076 2634 c470 -45 951 -246 1362 -568 45 -35 82 -67 82 -70 -1 -3
-18 -18 -38 -32 -43 -29 -40 -24 -292 -554 -26 -55 -78 -163 -115 -240 -37
-77 -84 -176 -105 -220 -135 -287 -171 -356 -184 -361 -9 -4 -46 13 -88 39
-236 146 -490 227 -707 227 -337 -1 -570 -210 -646 -580 -23 -112 -24 -327 -1
-429 26 -119 111 -251 160 -251 8 0 38 -21 68 -46 91 -78 190 -118 319 -129
65 -5 67 -4 73 21 4 14 6 193 6 397 l-2 372 756 3 c614 2 756 0 756 -11 0 -7
-20 -33 -45 -57 l-45 -44 0 -1263 0 -1263 -22 -10 c-22 -9 -384 -37 -793 -61
-264 -16 -632 -7 -807 20 -464 72 -810 236 -1070 510 -101 106 -149 167 -248
316 -40 61 -81 122 -92 138 -10 15 -16 33 -12 39 4 6 3 8 -4 4 -6 -3 -13 3
-17 14 -4 11 -11 17 -17 14 -7 -5 -9 -1 -5 8 3 9 -3 25 -13 36 -25 27 -101
222 -144 372 -247 858 -166 1932 200 2662 222 442 581 778 974 911 240 82 499
111 756 86z m-3256 -112 c214 -48 389 -137 537 -274 55 -51 135 -152 128 -163
-3 -5 16 -57 41 -117 134 -313 194 -601 194 -932 0 -328 -67 -619 -191 -838
-16 -28 -59 -91 -96 -139 -36 -48 -70 -103 -75 -121 -12 -43 3 -92 39 -124 14
-13 46 -67 70 -119 24 -52 48 -104 53 -115 66 -143 173 -448 244 -699 94 -331
199 -943 218 -1276 l3 -45 -695 -5 -695 -5 -38 -22 c-27 -16 -39 -19 -41 -10
-3 6 -9 98 -16 202 -28 479 -81 834 -167 1120 -20 66 -37 140 -38 165 -5 106
-59 222 -142 305 -129 129 -321 162 -377 65 -21 -34 -21 -48 -24 -927 l-3
-893 -655 0 -655 0 -49 -25 -50 -25 -2 2512 c-2 1382 -2 2517 0 2521 2 4 544
6 1205 4 1079 -3 1210 -5 1277 -20z m6392 -4 c3 -10 -11 -37 -29 -60 l-34 -43
70 -307 c38 -170 97 -432 131 -583 101 -457 141 -625 149 -633 4 -4 22 8 38
27 l31 34 12 -59 c7 -33 15 -58 17 -55 2 2 24 91 48 197 24 107 51 223 59 259
55 234 276 1226 276 1234 0 3 340 6 755 6 670 0 793 -4 746 -22 -4 -1 -32 -24
-60 -50 l-52 -47 -125 -543 c-68 -299 -147 -642 -174 -763 -28 -121 -64 -278
-80 -350 -34 -150 -124 -541 -275 -1205 -58 -256 -115 -501 -125 -545 -10 -44
-57 -249 -104 -455 -172 -759 -226 -992 -232 -1001 -3 -5 -284 -9 -658 -9
-530 0 -662 -3 -699 -14 l-47 -14 -9 37 c-6 20 -40 167 -76 326 -36 160 -108
475 -160 700 -52 226 -142 619 -200 875 -59 256 -127 553 -151 660 -25 107
-141 616 -259 1130 -118 514 -232 1014 -254 1110 -23 96 -41 176 -41 177 0 2
339 3 754 3 710 0 755 -1 758 -17z"/>
<path d="M1829 7485 c-26 -12 -42 -28 -55 -58 -18 -38 -19 -73 -19 -492 0
-247 4 -463 8 -479 7 -26 11 -28 47 -24 22 2 40 -1 40 -6 0 -13 134 0 195 19
61 18 140 76 176 130 15 22 38 72 51 110 20 60 23 90 23 215 0 112 -5 159 -19
205 -11 35 -18 86 -17 122 1 37 -5 77 -14 100 -24 58 -91 120 -155 144 -75 28
-212 35 -261 14z"/>
</g>
</svg>
